<svg width="260" height="190" viewBox="0 0 260 190" fill="none" xmlns="http://www.w3.org/2000/svg" role="img" aria-labelledby="title desc">
  <title id="title">Galleta de la fortuna cerrada</title>
  <desc id="desc">Ilustración de una galleta de la fortuna cerrada con sombras suaves.</desc>
  <ellipse cx="132" cy="153" rx="86" ry="17" fill="#E9D8CF"/>
  <path d="M40 119C52 71 95 43 133 59C170 43 213 71 225 119C207 131 175 139 133 131C91 139 58 131 40 119Z" fill="#F4C9A7"/>
  <path d="M133 59C118 78 113 101 124 131C105 129 78 120 59 103C76 70 106 51 133 59Z" fill="#F8D9BD"/>
  <path d="M133 59C148 78 153 101 142 131C161 129 188 120 207 103C190 70 160 51 133 59Z" fill="#EFB98E"/>
  <path d="M84 102C101 112 116 117 132 117C149 117 164 112 181 102" stroke="#D89566" stroke-width="7" stroke-linecap="round"/>
  <path d="M132 61C127 81 128 102 133 125" stroke="#D89566" stroke-width="5" stroke-linecap="round"/>
  <path d="M133 69L127 88L136 103L130 123" stroke="#C98251" stroke-width="3" stroke-linecap="round" opacity="0.65"/>
  <circle cx="90" cy="88" r="4" fill="#F7D1B4" opacity="0.8"/>
  <circle cx="176" cy="88" r="4" fill="#DFA06F" opacity="0.65"/>
</svg>
